<mxfile host="app.diagrams.net" modified="2023-03-15T21:41:55.582Z" agent="5.0 (Macintosh; Intel Mac OS X 10_15_7) AppleWebKit/605.1.15 (KHTML, like Gecko) Version/16.2 Safari/605.1.15" etag="9UkSxcLM7e58Tnu4XUPH" version="21.0.6" type="github">
  <diagram name="Page-1" id="eZ6Xlj0WB5S8HHPyZ9yK">
    <mxGraphModel dx="668" dy="469" grid="1" gridSize="10" guides="1" tooltips="1" connect="1" arrows="1" fold="1" page="1" pageScale="1" pageWidth="827" pageHeight="1169" math="0" shadow="0">
      <root>
        <mxCell id="0" />
        <mxCell id="1" parent="0" />
        <mxCell id="hzSvuJWDs6HgQ08WlNft-1" value="Application A" style="shape=umlLifeline;perimeter=lifelinePerimeter;whiteSpace=wrap;html=1;container=1;dropTarget=0;collapsible=0;recursiveResize=0;outlineConnect=0;portConstraint=eastwest;newEdgeStyle={&quot;edgeStyle&quot;:&quot;elbowEdgeStyle&quot;,&quot;elbow&quot;:&quot;vertical&quot;,&quot;curved&quot;:0,&quot;rounded&quot;:0};" vertex="1" parent="1">
          <mxGeometry x="80" y="40" width="100" height="300" as="geometry" />
        </mxCell>
        <mxCell id="hzSvuJWDs6HgQ08WlNft-2" value="FHIR &amp;nbsp;resource service" style="shape=umlLifeline;perimeter=lifelinePerimeter;whiteSpace=wrap;html=1;container=1;dropTarget=0;collapsible=0;recursiveResize=0;outlineConnect=0;portConstraint=eastwest;newEdgeStyle={&quot;edgeStyle&quot;:&quot;elbowEdgeStyle&quot;,&quot;elbow&quot;:&quot;vertical&quot;,&quot;curved&quot;:0,&quot;rounded&quot;:0};" vertex="1" parent="1">
          <mxGeometry x="240" y="40" width="100" height="320" as="geometry" />
        </mxCell>
        <mxCell id="hzSvuJWDs6HgQ08WlNft-4" value="" style="html=1;points=[];perimeter=orthogonalPerimeter;outlineConnect=0;targetShapes=umlLifeline;portConstraint=eastwest;newEdgeStyle={&quot;edgeStyle&quot;:&quot;elbowEdgeStyle&quot;,&quot;elbow&quot;:&quot;vertical&quot;,&quot;curved&quot;:0,&quot;rounded&quot;:0};" vertex="1" parent="hzSvuJWDs6HgQ08WlNft-2">
          <mxGeometry x="45" y="80" width="10" height="240" as="geometry" />
        </mxCell>
        <mxCell id="hzSvuJWDs6HgQ08WlNft-8" value="" style="html=1;points=[];perimeter=orthogonalPerimeter;outlineConnect=0;targetShapes=umlLifeline;portConstraint=eastwest;newEdgeStyle={&quot;edgeStyle&quot;:&quot;elbowEdgeStyle&quot;,&quot;elbow&quot;:&quot;vertical&quot;,&quot;curved&quot;:0,&quot;rounded&quot;:0};" vertex="1" parent="hzSvuJWDs6HgQ08WlNft-2">
          <mxGeometry x="52" y="190" width="10" height="80" as="geometry" />
        </mxCell>
        <mxCell id="hzSvuJWDs6HgQ08WlNft-3" value="Application B" style="shape=umlLifeline;perimeter=lifelinePerimeter;whiteSpace=wrap;html=1;container=1;dropTarget=0;collapsible=0;recursiveResize=0;outlineConnect=0;portConstraint=eastwest;newEdgeStyle={&quot;edgeStyle&quot;:&quot;elbowEdgeStyle&quot;,&quot;elbow&quot;:&quot;vertical&quot;,&quot;curved&quot;:0,&quot;rounded&quot;:0};" vertex="1" parent="1">
          <mxGeometry x="400" y="40" width="100" height="300" as="geometry" />
        </mxCell>
        <mxCell id="hzSvuJWDs6HgQ08WlNft-6" value="" style="html=1;points=[];perimeter=orthogonalPerimeter;outlineConnect=0;targetShapes=umlLifeline;portConstraint=eastwest;newEdgeStyle={&quot;edgeStyle&quot;:&quot;elbowEdgeStyle&quot;,&quot;elbow&quot;:&quot;vertical&quot;,&quot;curved&quot;:0,&quot;rounded&quot;:0};" vertex="1" parent="hzSvuJWDs6HgQ08WlNft-3">
          <mxGeometry x="45" y="120" width="10" height="160" as="geometry" />
        </mxCell>
        <mxCell id="hzSvuJWDs6HgQ08WlNft-5" value="&lt;div style=&quot;font-size: 9px;&quot;&gt;&lt;font style=&quot;font-size: 9px;&quot;&gt;X-Request-Id: &lt;span style=&quot;background-color: rgb(255, 153, 204);&quot;&gt;A&lt;/span&gt;&lt;/font&gt;&lt;/div&gt;&lt;div style=&quot;font-size: 9px;&quot;&gt;&lt;font style=&quot;font-size: 9px;&quot;&gt;X-Correlation-Id:&lt;/font&gt;&lt;/div&gt;&lt;div style=&quot;font-size: 9px;&quot;&gt;&lt;font style=&quot;font-size: 9px;&quot;&gt;X-Trace-id: &lt;span style=&quot;background-color: rgb(255, 255, 102);&quot;&gt;Z&lt;/span&gt;&lt;/font&gt;&lt;/div&gt;" style="html=1;verticalAlign=bottom;startArrow=oval;endArrow=block;startSize=8;edgeStyle=elbowEdgeStyle;elbow=vertical;curved=0;rounded=0;align=center;" edge="1" target="hzSvuJWDs6HgQ08WlNft-4" parent="1" source="hzSvuJWDs6HgQ08WlNft-1">
          <mxGeometry x="0.0043" relative="1" as="geometry">
            <mxPoint x="230" y="120" as="sourcePoint" />
            <Array as="points">
              <mxPoint x="270" y="130" />
            </Array>
            <mxPoint as="offset" />
          </mxGeometry>
        </mxCell>
        <mxCell id="hzSvuJWDs6HgQ08WlNft-7" value="&lt;div style=&quot;border-color: var(--border-color); font-size: 9px;&quot;&gt;&lt;font style=&quot;border-color: var(--border-color);&quot;&gt;X-Request-Id: &lt;span style=&quot;background-color: rgb(204, 153, 255);&quot;&gt;B&lt;/span&gt;&lt;/font&gt;&lt;/div&gt;&lt;div style=&quot;border-color: var(--border-color); font-size: 9px;&quot;&gt;&lt;font style=&quot;border-color: var(--border-color);&quot;&gt;X-Correlation-Id: &lt;span style=&quot;background-color: rgb(255, 153, 204);&quot;&gt;A&lt;/span&gt;&lt;/font&gt;&lt;/div&gt;&lt;div style=&quot;border-color: var(--border-color); font-size: 9px;&quot;&gt;&lt;font style=&quot;border-color: var(--border-color);&quot;&gt;X-Trace-id: &lt;span style=&quot;background-color: rgb(255, 255, 102);&quot;&gt;Z&lt;/span&gt;&lt;/font&gt;&lt;/div&gt;" style="html=1;verticalAlign=bottom;startArrow=oval;endArrow=block;startSize=8;edgeStyle=elbowEdgeStyle;elbow=vertical;curved=0;rounded=0;" edge="1" parent="1">
          <mxGeometry x="0.0023" relative="1" as="geometry">
            <mxPoint x="295" y="190" as="sourcePoint" />
            <mxPoint x="445" y="190" as="targetPoint" />
            <Array as="points">
              <mxPoint x="320" y="190" />
              <mxPoint x="330" y="180" />
            </Array>
            <mxPoint as="offset" />
          </mxGeometry>
        </mxCell>
        <mxCell id="hzSvuJWDs6HgQ08WlNft-9" value="&lt;div style=&quot;border-color: var(--border-color); font-size: 9px;&quot;&gt;&lt;font style=&quot;border-color: var(--border-color);&quot;&gt;X-Request-Id: &lt;span style=&quot;background-color: rgb(204, 204, 255);&quot;&gt;D&lt;/span&gt;&lt;/font&gt;&lt;/div&gt;&lt;div style=&quot;border-color: var(--border-color); font-size: 9px;&quot;&gt;&lt;font style=&quot;border-color: var(--border-color);&quot;&gt;X-Correlation-Id: &lt;span style=&quot;background-color: rgb(204, 153, 255);&quot;&gt;B&lt;/span&gt;&lt;/font&gt;&lt;/div&gt;&lt;div style=&quot;border-color: var(--border-color); font-size: 9px;&quot;&gt;&lt;font style=&quot;border-color: var(--border-color);&quot;&gt;X-Trace-id: &lt;span style=&quot;background-color: rgb(255, 255, 102);&quot;&gt;Z&lt;/span&gt;&lt;/font&gt;&lt;/div&gt;" style="html=1;verticalAlign=bottom;startArrow=oval;endArrow=block;startSize=8;edgeStyle=elbowEdgeStyle;elbow=vertical;curved=0;rounded=0;" edge="1" target="hzSvuJWDs6HgQ08WlNft-8" parent="1">
          <mxGeometry relative="1" as="geometry">
            <mxPoint x="445" y="250" as="sourcePoint" />
            <Array as="points">
              <mxPoint x="410" y="250" />
              <mxPoint x="320" y="230" />
            </Array>
          </mxGeometry>
        </mxCell>
        <mxCell id="hzSvuJWDs6HgQ08WlNft-10" value="" style="html=1;verticalAlign=bottom;endArrow=open;dashed=1;endSize=8;edgeStyle=elbowEdgeStyle;elbow=vertical;curved=0;rounded=0;" edge="1" parent="1">
          <mxGeometry x="0.0043" relative="1" as="geometry">
            <mxPoint x="285" y="160" as="sourcePoint" />
            <mxPoint x="129.81034482758605" y="160" as="targetPoint" />
            <Array as="points">
              <mxPoint x="190" y="160" />
              <mxPoint x="170" y="170" />
              <mxPoint x="130" y="160" />
            </Array>
            <mxPoint as="offset" />
          </mxGeometry>
        </mxCell>
        <mxCell id="hzSvuJWDs6HgQ08WlNft-15" value="" style="html=1;verticalAlign=bottom;endArrow=open;dashed=1;endSize=8;edgeStyle=elbowEdgeStyle;elbow=vertical;curved=0;rounded=0;" edge="1" parent="1" source="hzSvuJWDs6HgQ08WlNft-8">
          <mxGeometry relative="1" as="geometry">
            <mxPoint x="360" y="300.03" as="sourcePoint" />
            <mxPoint x="445" y="290" as="targetPoint" />
            <Array as="points">
              <mxPoint x="400" y="290" />
              <mxPoint x="310" y="300" />
            </Array>
          </mxGeometry>
        </mxCell>
        <mxCell id="hzSvuJWDs6HgQ08WlNft-16" value="" style="html=1;verticalAlign=bottom;endArrow=open;dashed=1;endSize=8;edgeStyle=elbowEdgeStyle;elbow=vertical;curved=0;rounded=0;" edge="1" parent="1">
          <mxGeometry relative="1" as="geometry">
            <mxPoint x="445" y="330" as="sourcePoint" />
            <mxPoint x="295" y="330" as="targetPoint" />
            <Array as="points">
              <mxPoint x="340" y="330" />
            </Array>
          </mxGeometry>
        </mxCell>
        <mxCell id="hzSvuJWDs6HgQ08WlNft-17" value="Application A" style="shape=umlLifeline;perimeter=lifelinePerimeter;whiteSpace=wrap;html=1;container=1;dropTarget=0;collapsible=0;recursiveResize=0;outlineConnect=0;portConstraint=eastwest;newEdgeStyle={&quot;edgeStyle&quot;:&quot;elbowEdgeStyle&quot;,&quot;elbow&quot;:&quot;vertical&quot;,&quot;curved&quot;:0,&quot;rounded&quot;:0};" vertex="1" parent="1">
          <mxGeometry x="80" y="40" width="100" height="300" as="geometry" />
        </mxCell>
        <mxCell id="hzSvuJWDs6HgQ08WlNft-18" value="FHIR &amp;nbsp;resource service" style="shape=umlLifeline;perimeter=lifelinePerimeter;whiteSpace=wrap;html=1;container=1;dropTarget=0;collapsible=0;recursiveResize=0;outlineConnect=0;portConstraint=eastwest;newEdgeStyle={&quot;edgeStyle&quot;:&quot;elbowEdgeStyle&quot;,&quot;elbow&quot;:&quot;vertical&quot;,&quot;curved&quot;:0,&quot;rounded&quot;:0};" vertex="1" parent="1">
          <mxGeometry x="240" y="40" width="100" height="320" as="geometry" />
        </mxCell>
        <mxCell id="hzSvuJWDs6HgQ08WlNft-19" value="" style="html=1;points=[];perimeter=orthogonalPerimeter;outlineConnect=0;targetShapes=umlLifeline;portConstraint=eastwest;newEdgeStyle={&quot;edgeStyle&quot;:&quot;elbowEdgeStyle&quot;,&quot;elbow&quot;:&quot;vertical&quot;,&quot;curved&quot;:0,&quot;rounded&quot;:0};" vertex="1" parent="hzSvuJWDs6HgQ08WlNft-18">
          <mxGeometry x="45" y="80" width="10" height="240" as="geometry" />
        </mxCell>
        <mxCell id="hzSvuJWDs6HgQ08WlNft-20" value="" style="html=1;points=[];perimeter=orthogonalPerimeter;outlineConnect=0;targetShapes=umlLifeline;portConstraint=eastwest;newEdgeStyle={&quot;edgeStyle&quot;:&quot;elbowEdgeStyle&quot;,&quot;elbow&quot;:&quot;vertical&quot;,&quot;curved&quot;:0,&quot;rounded&quot;:0};" vertex="1" parent="hzSvuJWDs6HgQ08WlNft-18">
          <mxGeometry x="52" y="190" width="10" height="80" as="geometry" />
        </mxCell>
        <mxCell id="hzSvuJWDs6HgQ08WlNft-21" value="Application B" style="shape=umlLifeline;perimeter=lifelinePerimeter;whiteSpace=wrap;html=1;container=1;dropTarget=0;collapsible=0;recursiveResize=0;outlineConnect=0;portConstraint=eastwest;newEdgeStyle={&quot;edgeStyle&quot;:&quot;elbowEdgeStyle&quot;,&quot;elbow&quot;:&quot;vertical&quot;,&quot;curved&quot;:0,&quot;rounded&quot;:0};" vertex="1" parent="1">
          <mxGeometry x="400" y="40" width="100" height="300" as="geometry" />
        </mxCell>
        <mxCell id="hzSvuJWDs6HgQ08WlNft-22" value="" style="html=1;points=[];perimeter=orthogonalPerimeter;outlineConnect=0;targetShapes=umlLifeline;portConstraint=eastwest;newEdgeStyle={&quot;edgeStyle&quot;:&quot;elbowEdgeStyle&quot;,&quot;elbow&quot;:&quot;vertical&quot;,&quot;curved&quot;:0,&quot;rounded&quot;:0};" vertex="1" parent="hzSvuJWDs6HgQ08WlNft-21">
          <mxGeometry x="45" y="120" width="10" height="160" as="geometry" />
        </mxCell>
        <mxCell id="hzSvuJWDs6HgQ08WlNft-23" value="&lt;div style=&quot;font-size: 9px;&quot;&gt;&lt;font style=&quot;font-size: 9px;&quot;&gt;PUT [update]&lt;/font&gt;&lt;/div&gt;&lt;div style=&quot;font-size: 9px;&quot;&gt;&lt;font style=&quot;font-size: 9px;&quot;&gt;X-Request-Id: &lt;span style=&quot;background-color: rgb(255, 153, 204);&quot;&gt;A&lt;/span&gt;&lt;/font&gt;&lt;/div&gt;&lt;div style=&quot;font-size: 9px;&quot;&gt;&lt;font style=&quot;font-size: 9px;&quot;&gt;X-Correlation-Id:&lt;/font&gt;&lt;/div&gt;&lt;div style=&quot;font-size: 9px;&quot;&gt;&lt;font style=&quot;font-size: 9px;&quot;&gt;X-Trace-id: &lt;span style=&quot;background-color: rgb(255, 255, 102);&quot;&gt;Z&lt;/span&gt;&lt;/font&gt;&lt;/div&gt;" style="html=1;verticalAlign=bottom;startArrow=oval;endArrow=block;startSize=8;edgeStyle=elbowEdgeStyle;elbow=vertical;curved=0;rounded=0;align=center;" edge="1" parent="1" source="hzSvuJWDs6HgQ08WlNft-17" target="hzSvuJWDs6HgQ08WlNft-19">
          <mxGeometry x="0.0043" relative="1" as="geometry">
            <mxPoint x="230" y="120" as="sourcePoint" />
            <Array as="points">
              <mxPoint x="270" y="130" />
            </Array>
            <mxPoint as="offset" />
          </mxGeometry>
        </mxCell>
        <mxCell id="hzSvuJWDs6HgQ08WlNft-24" value="&lt;div style=&quot;border-color: var(--border-color); font-size: 9px;&quot;&gt;&lt;font style=&quot;border-color: var(--border-color);&quot;&gt;GET [notify]&lt;/font&gt;&lt;/div&gt;&lt;div style=&quot;border-color: var(--border-color); font-size: 9px;&quot;&gt;&lt;font style=&quot;border-color: var(--border-color);&quot;&gt;X-Request-Id: &lt;span style=&quot;background-color: rgb(204, 153, 255);&quot;&gt;B&lt;/span&gt;&lt;/font&gt;&lt;/div&gt;&lt;div style=&quot;border-color: var(--border-color); font-size: 9px;&quot;&gt;&lt;font style=&quot;border-color: var(--border-color);&quot;&gt;X-Correlation-Id: &lt;span style=&quot;background-color: rgb(255, 153, 204);&quot;&gt;A&lt;/span&gt;&lt;/font&gt;&lt;/div&gt;&lt;div style=&quot;border-color: var(--border-color); font-size: 9px;&quot;&gt;&lt;font style=&quot;border-color: var(--border-color);&quot;&gt;X-Trace-id: &lt;span style=&quot;background-color: rgb(255, 255, 102);&quot;&gt;Z&lt;/span&gt;&lt;/font&gt;&lt;/div&gt;" style="html=1;verticalAlign=bottom;startArrow=oval;endArrow=block;startSize=8;edgeStyle=elbowEdgeStyle;elbow=vertical;curved=0;rounded=0;" edge="1" parent="1">
          <mxGeometry x="0.0023" relative="1" as="geometry">
            <mxPoint x="295" y="190" as="sourcePoint" />
            <mxPoint x="445" y="190" as="targetPoint" />
            <Array as="points">
              <mxPoint x="320" y="190" />
              <mxPoint x="330" y="180" />
            </Array>
            <mxPoint as="offset" />
          </mxGeometry>
        </mxCell>
        <mxCell id="hzSvuJWDs6HgQ08WlNft-25" value="&lt;div style=&quot;border-color: var(--border-color); font-size: 9px;&quot;&gt;&lt;font style=&quot;border-color: var(--border-color);&quot;&gt;GET [update]&lt;/font&gt;&lt;/div&gt;&lt;div style=&quot;border-color: var(--border-color); font-size: 9px;&quot;&gt;&lt;font style=&quot;border-color: var(--border-color);&quot;&gt;X-Request-Id: &lt;span style=&quot;background-color: rgb(204, 204, 255);&quot;&gt;D&lt;/span&gt;&lt;/font&gt;&lt;/div&gt;&lt;div style=&quot;border-color: var(--border-color); font-size: 9px;&quot;&gt;&lt;font style=&quot;border-color: var(--border-color);&quot;&gt;X-Correlation-Id: &lt;span style=&quot;background-color: rgb(204, 153, 255);&quot;&gt;B&lt;/span&gt;&lt;/font&gt;&lt;/div&gt;&lt;div style=&quot;border-color: var(--border-color); font-size: 9px;&quot;&gt;&lt;font style=&quot;border-color: var(--border-color);&quot;&gt;X-Trace-id: &lt;span style=&quot;background-color: rgb(255, 255, 102);&quot;&gt;Z&lt;/span&gt;&lt;/font&gt;&lt;/div&gt;" style="html=1;verticalAlign=bottom;startArrow=oval;endArrow=block;startSize=8;edgeStyle=elbowEdgeStyle;elbow=vertical;curved=0;rounded=0;" edge="1" parent="1" target="hzSvuJWDs6HgQ08WlNft-20">
          <mxGeometry relative="1" as="geometry">
            <mxPoint x="445" y="250" as="sourcePoint" />
            <Array as="points">
              <mxPoint x="410" y="250" />
              <mxPoint x="320" y="230" />
            </Array>
          </mxGeometry>
        </mxCell>
        <mxCell id="hzSvuJWDs6HgQ08WlNft-26" value="" style="html=1;verticalAlign=bottom;endArrow=open;dashed=1;endSize=8;edgeStyle=elbowEdgeStyle;elbow=vertical;curved=0;rounded=0;" edge="1" parent="1">
          <mxGeometry x="0.0043" relative="1" as="geometry">
            <mxPoint x="285" y="160" as="sourcePoint" />
            <mxPoint x="129.81034482758605" y="160" as="targetPoint" />
            <Array as="points">
              <mxPoint x="190" y="160" />
              <mxPoint x="170" y="170" />
              <mxPoint x="130" y="160" />
            </Array>
            <mxPoint as="offset" />
          </mxGeometry>
        </mxCell>
        <mxCell id="hzSvuJWDs6HgQ08WlNft-27" value="" style="html=1;verticalAlign=bottom;endArrow=open;dashed=1;endSize=8;edgeStyle=elbowEdgeStyle;elbow=vertical;curved=0;rounded=0;" edge="1" parent="1" source="hzSvuJWDs6HgQ08WlNft-20">
          <mxGeometry relative="1" as="geometry">
            <mxPoint x="360" y="300.03" as="sourcePoint" />
            <mxPoint x="445" y="290" as="targetPoint" />
            <Array as="points">
              <mxPoint x="400" y="290" />
              <mxPoint x="310" y="300" />
            </Array>
          </mxGeometry>
        </mxCell>
        <mxCell id="hzSvuJWDs6HgQ08WlNft-28" value="" style="html=1;verticalAlign=bottom;endArrow=open;dashed=1;endSize=8;edgeStyle=elbowEdgeStyle;elbow=vertical;curved=0;rounded=0;" edge="1" parent="1">
          <mxGeometry relative="1" as="geometry">
            <mxPoint x="445" y="330" as="sourcePoint" />
            <mxPoint x="295" y="330" as="targetPoint" />
            <Array as="points">
              <mxPoint x="340" y="330" />
            </Array>
          </mxGeometry>
        </mxCell>
      </root>
    </mxGraphModel>
  </diagram>
</mxfile>
